<svg width="62" height="50" viewBox="0 0 62 50" fill="none" xmlns="http://www.w3.org/2000/svg">
<path d="M30.897 50.0361C22.766 50.0361 14.635 50.0361 6.505 50.0361C6.478 50.0361 6.447 50.0371 6.415 50.0371C2.872 50.0371 0 47.1651 0 43.6221C0 43.5901 0 43.5591 0.001 43.5271V43.5321C0.0723333 34.0967 0.0723333 24.6554 0.001 15.2081C0.001 15.1971 0.001 15.1851 0.001 15.1721C0.001 11.6191 2.881 8.73906 6.434 8.73906C22.767 8.73906 39.082 8.73906 55.415 8.73906C55.497 8.73506 55.593 8.73306 55.69 8.73306C59.085 8.73306 61.837 11.4851 61.837 14.8801C61.837 14.9831 61.834 15.0851 61.829 15.1861L61.83 15.1721V43.5321C61.837 43.6411 61.841 43.7681 61.841 43.8971C61.841 47.2921 59.089 50.0441 55.694 50.0441C55.59 50.0441 55.486 50.0411 55.383 50.0361L55.398 50.0371L30.897 50.0361ZM30.897 43.8711C30.939 43.8711 30.99 43.8721 31.04 43.8721C39.014 43.8721 45.479 37.4071 45.479 29.4331C45.479 21.4591 39.014 14.9941 31.04 14.9941C23.078 14.9941 16.622 21.4381 16.601 29.3941V29.3961C16.65 37.2811 22.988 43.6691 30.849 43.7991H30.861L30.897 43.8711ZM12.384 19.0491C12.345 17.9281 11.436 17.0311 10.313 17.0121H10.311C9.176 17.0121 8.256 17.9321 8.256 19.0671C8.256 20.2021 9.176 21.1221 10.311 21.1221C11.448 21.1021 12.364 20.1861 12.384 19.0511V19.0491Z" fill="#CCBA8D"/>
<path d="M42.28 6.16506H19.532C19.889 4.73506 20.211 3.35906 20.568 1.98306C20.646 0.853064 21.582 -0.0339355 22.725 -0.0339355C22.859 -0.0339355 22.991 -0.0219355 23.118 0.00206446L23.105 6.4455e-05H38.938C39.008 -0.00793555 39.089 -0.0129355 39.17 -0.0129355C40.219 -0.0129355 41.085 0.766065 41.224 1.77606L41.225 1.78706C41.565 3.07406 41.886 4.36006 42.208 5.64706C42.244 5.80806 42.245 5.96906 42.28 6.16506Z" fill="#CCBA8D"/>
<path d="M30.861 43.7991C22.902 43.7781 16.459 37.322 16.459 29.36C16.459 21.386 22.924 14.921 30.898 14.921C38.872 14.921 45.337 21.386 45.337 29.36C45.337 29.41 45.337 29.46 45.336 29.511V29.503C45.215 37.412 38.785 43.78 30.863 43.799L30.861 43.7991ZM30.861 39.671C36.556 39.671 41.172 35.055 41.172 29.36C41.172 23.665 36.556 19.049 30.861 19.049C25.179 19.049 20.57 23.645 20.55 29.322V29.324C20.55 29.345 20.55 29.371 20.55 29.396C20.55 35.071 25.15 39.671 30.825 39.671C30.863 39.671 30.901 39.671 30.938 39.67H30.932L30.861 39.671Z" fill="#CCBA8D"/>
<path d="M12.384 19.0491C12.365 20.1741 11.468 21.0831 10.35 21.1221H10.346C9.211 21.1221 8.291 20.2021 8.291 19.0671C8.291 17.9321 9.211 17.0121 10.346 17.0121C11.455 17.0501 12.345 17.9401 12.383 19.0461V19.0501L12.384 19.0491Z" fill="#BDAE82"/>
<path d="M31.129 21.1401C35.507 21.2841 39.019 24.8011 39.152 29.1691V29.1821C39.154 29.2201 39.156 29.2651 39.156 29.3111C39.156 30.4431 38.272 31.3681 37.156 31.4341H37.15C37.145 31.4341 37.138 31.4341 37.132 31.4341C35.987 31.4341 35.059 30.5061 35.059 29.3611C35.02 27.1091 33.215 25.2921 30.972 25.2331H30.966C30.949 25.2331 30.93 25.2341 30.91 25.2341C29.785 25.2341 28.873 24.3221 28.873 23.1971C28.873 23.1651 28.874 23.1341 28.875 23.1021V23.1061C28.929 22.0051 29.836 21.1321 30.946 21.1321C31.01 21.1321 31.073 21.1351 31.135 21.1401L31.127 21.1391L31.129 21.1401Z" fill="#CCBA8D"/>
</svg>
